<svg width="32" height="32" viewBox="0 0 32 32" fill="none" xmlns="http://www.w3.org/2000/svg">
<circle cx="16" cy="16" r="15" fill="#F57C00"/>
<path d="M11.8668 17.6H16L17.24 20.0532C17.3555 20.2932 17.5244 20.4777 17.7468 20.6068C17.9689 20.7356 18.2 20.8 18.44 20.8H24.2668C24.6489 20.8 24.9667 20.6733 25.22 20.42C25.4733 20.1667 25.6 19.8489 25.6 19.4668V12.5332C25.6 12.1511 25.4733 11.8333 25.22 11.58C24.9667 11.3267 24.6489 11.2 24.2668 11.2H20.8L19.56 8.7468C19.4445 8.5068 19.2756 8.32227 19.0532 8.1932C18.8311 8.0644 18.6 8 18.36 8H10.9332C10.5511 8 10.2333 8.12667 9.98 8.38C9.72667 8.63333 9.6 8.95107 9.6 9.3332V24.48C9.6 24.7912 9.71333 25.0556 9.94 25.2732C10.1667 25.4911 10.4356 25.6 10.7468 25.6C11.0577 25.6 11.3221 25.4867 11.54 25.26C11.7579 25.0333 11.8668 24.7644 11.8668 24.4532V17.6ZM19.08 18.5332L17.48 15.3332H11.8668V10.2668H17.72L19.32 13.4668H23.3332V18.5332H19.08ZM16 32C13.8045 32 11.7335 31.58 9.7868 30.74C7.84013 29.9 6.14227 28.7556 4.6932 27.3068C3.2444 25.8577 2.1 24.1599 1.26 22.2132C0.42 20.2665 0 18.1955 0 16C0 13.7867 0.42 11.7067 1.26 9.76C2.1 7.81333 3.2444 6.12 4.6932 4.68C6.14227 3.24 7.84013 2.1 9.7868 1.26C11.7335 0.42 13.8045 0 16 0C18.2133 0 20.2933 0.42 22.24 1.26C24.1867 2.1 25.88 3.24 27.32 4.68C28.76 6.12 29.9 7.81333 30.74 9.76C31.58 11.7067 32 13.7867 32 16C32 18.1955 31.58 20.2665 30.74 22.2132C29.9 24.1599 28.76 25.8577 27.32 27.3068C25.88 28.7556 24.1867 29.9 22.24 30.74C20.2933 31.58 18.2133 32 16 32ZM16 29.3332C19.7155 29.3332 22.8665 28.0355 25.4532 25.44C28.0399 22.8445 29.3332 19.6979 29.3332 16C29.3332 12.2845 28.0399 9.13347 25.4532 6.5468C22.8665 3.96013 19.7155 2.6668 16 2.6668C12.3021 2.6668 9.15547 3.96013 6.56 6.5468C3.96453 9.13347 2.6668 12.2845 2.6668 16C2.6668 19.6979 3.96453 22.8445 6.56 25.44C9.15547 28.0355 12.3021 29.3332 16 29.3332Z" fill="white"/>
</svg>
