<svg xmlns="http://www.w3.org/2000/svg" height="48px" viewBox="0 -960 960 960" width="48px" fill="url(#gradient)">
    <path d="m276-478 44-88q8-16 22-25t31-9h77v-250q0-13 8.5-21.5T480-880h200q8 0 12.5 7t.5 15l-21 41q-2 3-2 7t2 7l21 41q4 8-.5 15t-12.5 7H510v140h73q17 0 31.5 9t22.5 24l44 90-124 83-77-40-78 39-126-83ZM177-80q-33 0-51-28.5t-3-58.5l127-257 148 98 82-40 82 41 147-97 128 255q15 30-2.5 58.5T783-80H177Z"/>
    <defs>
        <linearGradient id="gradient" x1="100%" y1="100%">
            <stop offset="0%" stop-color="green" stop-opacity=".5">
                <animate attributeName="stop-color" values="green;lightgreen;green" dur="3s" repeatCount="indefinite" />
            </stop>
            <stop offset="100%" stop-color="green" stop-opacity=".5">
                <animate attributeName="stop-color" values="green;lightgreen;green" dur="3s" repeatCount="indefinite" />
                <animate attributeName="offset" values="1;0;1" dur="3s" repeatCount="indefinite" />    
            </stop>
        </linearGradient>
    </defs>
</svg>