<svg width="16" height="16" viewBox="0 0 16 16" fill="none" xmlns="http://www.w3.org/2000/svg">
<circle cx="8" cy="8" r="8" fill="#2E7D32"/>
<path d="M6.06537 8.50245H7.95499L8.70992 9.64112C8.78975 9.75556 8.88905 9.84559 9.00783 9.91118C9.1266 9.97692 9.25612 10.0098 9.39638 10.0098H12.208C12.4306 10.0098 12.6224 9.92947 12.7833 9.76882C12.9441 9.60818 13.0245 9.41676 13.0245 9.19457V6.3101C13.0245 6.08777 12.9441 5.8951 12.7833 5.73208C12.6224 5.5692 12.4306 5.48777 12.208 5.48777H10.5572L9.80232 4.3491C9.72249 4.23465 9.62318 4.14463 9.50441 4.07903C9.38564 4.01329 9.25612 3.98043 9.11585 3.98043H5.8018C5.57918 3.98043 5.38742 4.06082 5.22649 4.2216C5.06571 4.38252 4.98532 4.57429 4.98532 4.7969V12.4871C4.98532 12.6421 5.03696 12.7705 5.14024 12.8721C5.24352 12.9737 5.37269 13.0245 5.52775 13.0245C5.68295 13.0245 5.81136 12.9728 5.91296 12.8695C6.01457 12.7663 6.06537 12.6371 6.06537 12.482V8.50245ZM9.54921 8.92974L8.54432 7.4224H6.06537V5.06048H8.96302L9.96792 6.56782H11.9444V8.92974H9.54921ZM8.00586 16C6.90062 16 5.86341 15.7917 4.89425 15.3751C3.92523 14.9585 3.07553 14.3851 2.34517 13.6548C1.61495 12.9245 1.04153 12.0751 0.624918 11.1066C0.208306 10.1381 0 9.09938 0 7.99037C0 6.8815 0.208306 5.84597 0.624918 4.88378C1.04153 3.92174 1.61495 3.07553 2.34517 2.34517C3.07553 1.61495 3.92495 1.04153 4.89341 0.624918C5.86188 0.208306 6.90062 0 8.00963 0C9.1185 0 10.154 0.208306 11.1162 0.624918C12.0783 1.04153 12.9245 1.61495 13.6548 2.34517C14.3851 3.07553 14.9585 3.92334 15.3751 4.8886C15.7917 5.85385 16 6.88903 16 7.99414C16 9.09938 15.7917 10.1366 15.3751 11.1057C14.9585 12.0748 14.3851 12.9245 13.6548 13.6548C12.9245 14.3851 12.0767 14.9585 11.1114 15.3751C10.1461 15.7917 9.11097 16 8.00586 16ZM8 14.367C9.7661 14.367 11.2688 13.7474 12.5082 12.5082C13.7474 11.2688 14.367 9.7661 14.367 8C14.367 6.2339 13.7474 4.73116 12.5082 3.4918C11.2688 2.25257 9.7661 1.63295 8 1.63295C6.2339 1.63295 4.73117 2.25257 3.4918 3.4918C2.25257 4.73116 1.63295 6.2339 1.63295 8C1.63295 9.7661 2.25257 11.2688 3.4918 12.5082C4.73117 13.7474 6.2339 14.367 8 14.367Z" fill="white"/>
</svg>
