<svg width="26" height="37" viewBox="0 0 26 37" fill="none" xmlns="http://www.w3.org/2000/svg">
<path d="M24.5 13C24.5 14.4389 23.8191 16.5775 22.6118 19.1396C21.431 21.6456 19.843 24.3617 18.2348 26.8866C16.6299 29.4063 15.0225 31.7083 13.8148 33.382C13.5165 33.7955 13.2428 34.1702 13 34.4999C12.7572 34.1702 12.4835 33.7955 12.1852 33.382C10.9775 31.7083 9.37006 29.4063 7.76516 26.8866C6.15697 24.3617 4.56897 21.6456 3.38816 19.1396C2.18093 16.5775 1.5 14.4389 1.5 13C1.5 6.64873 6.64873 1.5 13 1.5C19.3513 1.5 24.5 6.64873 24.5 13Z" fill="#2E7D32" stroke="white" stroke-width="3"/>
<path d="M9.75 14.3H13L13.9425 16.185C14.0508 16.4233 14.2133 16.6021 14.43 16.7213C14.6467 16.8404 14.8742 16.9 15.1125 16.9H19.5C19.8683 16.9 20.1771 16.7754 20.4263 16.5263C20.6754 16.2771 20.8 15.9683 20.8 15.6V10.4C20.8 10.0317 20.6754 9.72292 20.4263 9.47375C20.1771 9.22458 19.8683 9.1 19.5 9.1H16.9L15.9575 7.215C15.8492 6.97667 15.6867 6.79792 15.47 6.67875C15.2533 6.55958 15.0258 6.5 14.7875 6.5H9.1C8.73167 6.5 8.42292 6.62458 8.17375 6.87375C7.92459 7.12292 7.8 7.43167 7.8 7.8V19.825C7.8 20.1067 7.89209 20.3396 8.07625 20.5238C8.26042 20.7079 8.49334 20.8 8.775 20.8C9.05667 20.8 9.28959 20.7079 9.47375 20.5238C9.65792 20.3396 9.75 20.1067 9.75 19.825V14.3ZM15.5025 14.95L14.2025 12.35H9.75V8.45H14.3975L15.6975 11.05H18.85V14.95H15.5025Z" fill="white"/>
</svg>
