<svg width="48" height="48" viewBox="0 0 48 48" fill="none" xmlns="http://www.w3.org/2000/svg">
<circle cx="24" cy="24" r="24" fill="#B07B48" fill-opacity="0.4"/>
<path d="M19 33V31H23V27.9C22.1833 27.7167 21.4542 27.3708 20.8125 26.8625C20.1708 26.3542 19.7 25.7167 19.4 24.95C18.15 24.8 17.1042 24.2542 16.2625 23.3125C15.4208 22.3708 15 21.2667 15 20V19C15 18.45 15.1958 17.9792 15.5875 17.5875C15.9792 17.1958 16.45 17 17 17H19V15H29V17H31C31.55 17 32.0208 17.1958 32.4125 17.5875C32.8042 17.9792 33 18.45 33 19V20C33 21.2667 32.5792 22.3708 31.7375 23.3125C30.8958 24.2542 29.85 24.8 28.6 24.95C28.3 25.7167 27.8292 26.3542 27.1875 26.8625C26.5458 27.3708 25.8167 27.7167 25 27.9V31H29V33H19ZM19 22.8V19H17V20C17 20.6333 17.1833 21.2042 17.55 21.7125C17.9167 22.2208 18.4 22.5833 19 22.8ZM24 26C24.8333 26 25.5417 25.7083 26.125 25.125C26.7083 24.5417 27 23.8333 27 23V17H21V23C21 23.8333 21.2917 24.5417 21.875 25.125C22.4583 25.7083 23.1667 26 24 26ZM29 22.8C29.6 22.5833 30.0833 22.2208 30.45 21.7125C30.8167 21.2042 31 20.6333 31 20V19H29V22.8Z" fill="#AF7741"/>
</svg>
