<svg width="28" height="242" viewBox="0 0 28 242" fill="none" xmlns="http://www.w3.org/2000/svg">
<path d="M14 182L24 172L14 162L4 172L14 182Z" fill="#939F9419"/>
<path d="M0 196L10 186L0 176V196Z" fill="#939F9419"/>
<path d="M14 153L23 144L14 135L5 144L14 153Z" fill="#939F9419"/>
<path d="M0 167L9 158L0 149V167Z" fill="#939F9419"/>
<path d="M14 124L22 116L14 108L6 116L14 124Z" fill="#939F9419"/>
<path d="M0 138L8 130L0 122V138Z" fill="#939F9419"/>
<path d="M14 95L21 88L14 81L7 88L14 95Z" fill="#939F9419"/>
<path d="M0 109L7 102L0 95V109Z" fill="#939F9419"/>
<path d="M14 66L20 60L14 54L8 60L14 66Z" fill="#939F9419"/>
<path d="M0 80L6 74L0 68V80Z" fill="#939F9419"/>
<path d="M14 37L19 32L14 27L9 32L14 37Z" fill="#939F9419"/>
<path d="M0 51L5 46L0 41V51Z" fill="#939F9419"/>
<path d="M14 8L18 4L14 0L10 4L14 8Z" fill="#939F9419"/>
<path d="M0 22L4 18L0 14V22Z" fill="#939F9419"/>
<path d="M14 240L26 228L14 216L2 228L14 240Z" fill="#939F9419"/>
<path d="M0 242H12L0 230V242Z" fill="#939F9419"/>
<path d="M14 211L25 200L14 189L3 200L14 211Z" fill="#939F9419"/>
<path d="M0 225L11 214L0 203V225Z" fill="#939F9419"/>
<path d="M28 196L18 186L28 176V196Z" fill="#939F9419"/>
<path d="M28 167L19 158L28 149V167Z" fill="#939F9419"/>
<path d="M28 138L20 130L28 122V138Z" fill="#939F9419"/>
<path d="M28 109L21 102L28 95V109Z" fill="#939F9419"/>
<path d="M28 80L22 74L28 68V80Z" fill="#939F9419"/>
<path d="M28 51L23 46L28 41V51Z" fill="#939F9419"/>
<path d="M28 22L24 18L28 14V22Z" fill="#939F9419"/>
<path d="M28 242H16L28 230V242Z" fill="#939F9419"/>
<path d="M28 225L17 214L28 203V225Z" fill="#939F9419"/>
</svg>
