<svg width="28" height="28" viewBox="0 0 28 28" fill="none" xmlns="http://www.w3.org/2000/svg">
<rect width="28" height="28" rx="14" fill="white"/>
<path d="M6.69175 24C6.07508 24 5.60141 23.7375 5.27075 23.2125C4.94025 22.6875 4.91391 22.1473 5.19175 21.5918L8.20825 15.475L11.9417 17.95L14 16.9418L16.0582 17.9668L19.7582 15.525L22.8 21.5833C23.0778 22.1389 23.0542 22.6806 22.7292 23.2083C22.4042 23.7361 21.9278 24 21.3 24H6.69175Z" fill="#597C4B"/>
<path d="M11.1667 4.83325V12L12.8332 11V7.66675H17.0667C17.2167 7.66675 17.3334 7.60142 17.4167 7.47075C17.5001 7.34025 17.5056 7.20275 17.4332 7.05825L16.9 6.025C16.8667 5.96383 16.85 5.89992 16.85 5.83325C16.85 5.76658 16.8667 5.70275 16.9 5.64175L17.4332 4.60825C17.5056 4.46392 17.5001 4.32642 17.4167 4.19575C17.3334 4.06525 17.2167 4 17.0667 4H12C11.7612 4 11.5626 4.07917 11.4042 4.2375C11.2459 4.39583 11.1667 4.59442 11.1667 4.83325Z" fill="#D03939"/>
<path d="M9.95 11.9417L8.94175 13.975L12.0582 16.0332L14 15.0582L15.925 16.05L18.9917 14L17.9667 11.9167C17.8167 11.6389 17.6097 11.4167 17.3457 11.25C17.0819 11.0833 16.7917 11 16.475 11H11.4332C11.1166 11 10.8263 11.0833 10.5625 11.25C10.2987 11.4167 10.0945 11.6472 9.95 11.9417Z" fill="#95A8A9"/>
</svg>
