<svg width="26" height="26" viewBox="0 0 26 26" fill="none" xmlns="http://www.w3.org/2000/svg">
<g filter="url(#filter0_d_22_23)">
<circle cx="13" cy="13" r="8" fill="#2E7D32"/>
</g>
<path d="M11 13.8H13L13.58 14.96C13.6467 15.1067 13.7467 15.2167 13.88 15.29C14.0133 15.3633 14.1533 15.4 14.3 15.4H17C17.2267 15.4 17.4167 15.3233 17.57 15.17C17.7233 15.0167 17.8 14.8267 17.8 14.6V11.4C17.8 11.1733 17.7233 10.9833 17.57 10.83C17.4167 10.6767 17.2267 10.6 17 10.6H15.4L14.82 9.44C14.7533 9.29333 14.6533 9.18333 14.52 9.11C14.3867 9.03667 14.2467 9 14.1 9H10.6C10.3733 9 10.1833 9.07667 10.03 9.23C9.87667 9.38333 9.8 9.57333 9.8 9.8V17.2C9.8 17.3733 9.85667 17.5167 9.97 17.63C10.0833 17.7433 10.2267 17.8 10.4 17.8C10.5733 17.8 10.7167 17.7433 10.83 17.63C10.9433 17.5167 11 17.3733 11 17.2V13.8ZM14.54 14.2L13.74 12.6H11V10.2H13.86L14.66 11.8H16.6V14.2H14.54ZM13 21C11.8933 21 10.8533 20.79 9.88 20.37C8.90667 19.95 8.06 19.38 7.34 18.66C6.62 17.94 6.05 17.0933 5.63 16.12C5.21 15.1467 5 14.1067 5 13C5 11.8933 5.21 10.8533 5.63 9.88C6.05 8.90667 6.62 8.06 7.34 7.34C8.06 6.62 8.90667 6.05 9.88 5.63C10.8533 5.21 11.8933 5 13 5C14.1067 5 15.1467 5.21 16.12 5.63C17.0933 6.05 17.94 6.62 18.66 7.34C19.38 8.06 19.95 8.90667 20.37 9.88C20.79 10.8533 21 11.8933 21 13C21 14.1067 20.79 15.1467 20.37 16.12C19.95 17.0933 19.38 17.94 18.66 18.66C17.94 19.38 17.0933 19.95 16.12 20.37C15.1467 20.79 14.1067 21 13 21ZM13 19.4C14.7867 19.4 16.3 18.78 17.54 17.54C18.78 16.3 19.4 14.7867 19.4 13C19.4 11.2133 18.78 9.7 17.54 8.46C16.3 7.22 14.7867 6.6 13 6.6C11.2133 6.6 9.7 7.22 8.46 8.46C7.22 9.7 6.6 11.2133 6.6 13C6.6 14.7867 7.22 16.3 8.46 17.54C9.7 18.78 11.2133 19.4 13 19.4Z" fill="white"/>
<defs>
<filter id="filter0_d_22_23" x="0" y="0" width="26" height="26" filterUnits="userSpaceOnUse" color-interpolation-filters="sRGB">
<feFlood flood-opacity="0" result="BackgroundImageFix"/>
<feColorMatrix in="SourceAlpha" type="matrix" values="0 0 0 0 0 0 0 0 0 0 0 0 0 0 0 0 0 0 127 0" result="hardAlpha"/>
<feOffset/>
<feGaussianBlur stdDeviation="2.5"/>
<feComposite in2="hardAlpha" operator="out"/>
<feColorMatrix type="matrix" values="0 0 0 0 0 0 0 0 0 0 0 0 0 0 0 0 0 0 1 0"/>
<feBlend mode="normal" in2="BackgroundImageFix" result="effect1_dropShadow_22_23"/>
<feBlend mode="normal" in="SourceGraphic" in2="effect1_dropShadow_22_23" result="shape"/>
</filter>
</defs>
</svg>
