<svg width="28" height="242" viewBox="0 0 28 242" fill="none" xmlns="http://www.w3.org/2000/svg">
<path d="M14 60L4 70L14 80L24 70L14 60Z" fill="#e8f5e944"/>
<path d="M28 46L18 56L28 66L28 46Z" fill="#e8f5e944"/>
<path d="M14 89L5 98L14 107L23 98L14 89Z" fill="#e8f5e944"/>
<path d="M28 75L19 84L28 93L28 75Z" fill="#e8f5e944"/>
<path d="M14 118L6 126L14 134L22 126L14 118Z" fill="#e8f5e944"/>
<path d="M28 104L20 112L28 120L28 104Z" fill="#e8f5e944"/>
<path d="M14 147L7 154L14 161L21 154L14 147Z" fill="#e8f5e944"/>
<path d="M28 133L21 140L28 147V133Z" fill="#e8f5e944"/>
<path d="M14 176L8 182L14 188L20 182L14 176Z" fill="#e8f5e944"/>
<path d="M28 162L22 168L28 174V162Z" fill="#e8f5e944"/>
<path d="M14 205L9 210L14 215L19 210L14 205Z" fill="#e8f5e944"/>
<path d="M28 191L23 196L28 201V191Z" fill="#e8f5e944"/>
<path d="M14 234L10 238L14 242L18 238L14 234Z" fill="#e8f5e944"/>
<path d="M28 220L24 224L28 228V220Z" fill="#e8f5e944"/>
<path d="M14 2L2 14L14 26L26 14L14 2Z" fill="#e8f5e944"/>
<path d="M28 0L16 0L28 12V0Z" fill="#e8f5e944"/>
<path d="M14 31L3 42L14 53L25 42L14 31Z" fill="#e8f5e944"/>
<path d="M28 17L17 28L28 39L28 17Z" fill="#e8f5e944"/>
<path d="M0 46L10 56L0 66L0 46Z" fill="#e8f5e944"/>
<path d="M0 75L9 84L0 93L0 75Z" fill="#e8f5e944"/>
<path d="M0 104L8 112L0 120L0 104Z" fill="#e8f5e944"/>
<path d="M0 133L7 140L0 147L0 133Z" fill="#e8f5e944"/>
<path d="M0 162L6 168L0 174L0 162Z" fill="#e8f5e944"/>
<path d="M0 191L5 196L0 201L0 191Z" fill="#e8f5e944"/>
<path d="M0 220L4 224L0 228L0 220Z" fill="#e8f5e944"/>
<path d="M0 0L12 0L0 12L0 0Z" fill="#e8f5e944"/>
<path d="M0 17L11 28L0 39L0 17Z" fill="#e8f5e944"/>
</svg>
