<svg width="64" height="64" viewBox="0 0 64 64" fill="none" xmlns="http://www.w3.org/2000/svg">
<g clip-path="url(#clip0_18_122)">
<path d="M0 41.5C2.69231 41.5 4.57923 45.9297 4.93796 46.8383C4.98104 46.9474 5.01722 47.055 5.04571 47.1688C5.30146 48.1902 6.32676 53.5 0 53.5M64 53.5C61.5 53.5 62.8732 49.5739 61 48V48C59.2939 46.5664 58.4463 43.9129 60.3727 42.7925C61.6254 42.0639 62.938 41.5 64 41.5M0 57C0.494661 57 1.05049 57.0612 1.60698 57.1533C3.78072 57.513 5.4554 59.228 5.78785 61.4061C5.91183 62.2184 6 63.1092 6 64M64 57C61 57 59 60.5 59 64M6 0C6 1.1945 5.42927 1.93241 4.8332 2.37736C4.08401 2.9366 3.25546 3.48909 2.83736 4.32529V4.32529C2.32417 5.35166 1.27517 6 0.127647 6C0.0851494 6 0.0425747 6 0 6M64 6C61.5 6 59 4 59 0M0 24C1.83482 24 3.40032 19.6908 4.10349 17.3977C4.38503 16.4795 4.43158 15.5066 4.15482 14.587C3.62099 12.8132 2.39657 10 0 10M64 10C62.8596 10 61.8637 10.578 61.0672 11.2946C59.4831 12.7198 59.6639 15.1065 60.7603 16.9338V16.9338C61.558 18.2633 61.7355 19.8542 61.8657 21.3992C61.9738 22.6819 62.4597 24 64 24M9 64C9 62.6504 10.366 61.3009 11.2545 60.5658C11.7338 60.1692 12.2991 59.9003 12.8893 59.7036L12.9456 59.6848C14.2839 59.2387 15.7322 59.1901 17.0399 59.7194C19.1063 60.5557 22 62.0711 22 64M9 0C9 0.0921404 9.00531 0.188526 9.01543 0.288569C9.37098 3.80226 13.9363 4.7567 17 3V3C18.9754 1.86731 22 2.5 22 0M27 0C27 0.930172 27.5768 1.86034 28.0151 2.43283C28.3098 2.81785 28.5371 3.25948 28.6056 3.73949V3.73949C28.8082 5.15713 30.2701 6.0237 31.611 5.52088L31.8914 5.41571C32.5926 5.15277 33.1398 4.5887 33.3382 3.86658C33.6283 2.8103 34 1.21931 34 0M27 64C27 63.807 27.1117 63.5768 27.2921 63.3308C28.6235 61.5154 31.4006 61.2741 33.1448 62.6976C33.6442 63.1052 34 63.5526 34 64M42 64C42 63.6606 42.1024 63.2699 42.2609 62.8686C43.042 60.8908 45.2458 59.9366 47.358 60.1828C47.9829 60.2557 48.5726 60.3575 49 60.5C50.5 61 54 62 54 64M42 0C42 1.18283 45.4977 2.36566 48.3559 3.13477C50.616 3.74292 53.3505 3.09099 53.898 0.815459C53.9626 0.54705 54 0.273525 54 0M26 18V18C25.5379 15.6894 27.6539 13.6923 29.9339 14.2871L34.1066 15.3756C35.5482 15.7517 36.6086 16.9777 36.7731 18.4583V18.4583C36.9137 19.7235 36.375 20.9688 35.3566 21.7325L32.9797 23.5152C31.7575 24.4319 30.1348 24.6155 28.7386 23.9949V23.9949C27.3546 23.3798 26.4069 22.0695 26.2562 20.5624L26 18ZM28.5 35H32.6795C34.1482 35 35.5394 34.3408 36.4694 33.2041L37.6729 31.7331C38.6887 30.4916 38.5272 28.6662 37.3094 27.6223V27.6223C36.5004 26.9289 35.3806 26.7252 34.3793 27.0893L31.5622 28.1137C30.8712 28.365 30.2752 28.8247 29.8566 29.4293L27.423 32.9445C26.8216 33.8133 27.4434 35 28.5 35V35ZM12.25 30.25V30.25C13.3212 30.0028 13.4792 28.5428 12.4857 28.0722L8.29158 26.0855C6.99418 25.4709 5.44224 25.9482 4.71436 27.1856L2.39284 31.1322C1.55415 32.5579 1.68277 34.3535 2.71611 35.6451L3.46049 36.5756C4.3315 37.6644 5.8904 37.9064 7.05052 37.133V37.133C7.6573 36.7285 8.07368 36.0948 8.20413 35.3773L8.40334 34.2816C8.76542 32.2902 10.2777 30.7051 12.25 30.25V30.25ZM38.671 25.4747V25.4747C37.998 25.0821 38.0783 24.0853 38.8056 23.8056L41.8463 22.636C42.8365 22.2552 43.9592 22.5427 44.6444 23.3525L45.956 24.9026C47.696 26.9589 47.6359 29.9881 45.8157 31.9738L44.3364 33.5875C43.821 34.1498 43.0391 34.3848 42.2991 34.1998V34.1998C40.9221 33.8555 40.287 32.2633 41.049 31.0658L41.5009 30.3557C42.3193 29.0697 41.9048 27.3612 40.5882 26.5931L38.671 25.4747ZM44.5357 11.5L45.3453 13.767C45.9925 15.579 45.1071 17.5804 43.331 18.3204L42.6987 18.5839C41.4303 19.1124 39.9658 18.6453 39.2376 17.4802V17.4802C38.5203 16.3325 38.7237 14.8366 39.7213 13.9221L42.8259 11.0763C43.3833 10.5653 44.2814 10.7878 44.5357 11.5V11.5ZM18 55C15.8783 56.326 12.9127 57.3707 10.5952 58.0595C8.60816 58.65 6.60123 57.4049 6.09846 55.3938L5.9702 54.8808C5.68369 53.7348 6.09142 52.5269 7.01387 51.7889V51.7889C7.64484 51.2841 8.45171 51.0531 9.25421 51.1476L10.9653 51.3489C11.8125 51.4485 12.6726 51.37 13.4879 51.1191V51.1191C14.7903 50.7184 15.9243 49.8938 16.7058 48.7774L18.1639 46.6945C18.6719 45.9687 19.5611 45.6122 20.4297 45.7859V45.7859C21.105 45.921 21.6801 46.3603 21.9881 46.9762L22.3355 47.671C22.7629 48.5258 22.8596 49.5165 22.4094 50.3595C21.7429 51.6075 20.4209 53.4869 18 55ZM18.5 9C18.395 8.16009 18.0104 7.14279 17.657 6.34431C17.3059 5.55112 16.4027 5.19912 15.5797 5.47342V5.47342C14.6883 5.77056 14.176 6.7039 14.4039 7.61548L14.6206 8.48229C14.856 9.42387 14.5801 10.4199 13.8938 11.1062L13.1405 11.8595C12.0331 12.9669 12.2157 14.8105 13.5187 15.6791V15.6791C14.6259 16.4173 16.1155 16.1468 16.7615 14.9834C17.6859 13.319 18.7408 10.9262 18.5 9ZM29 50.5C28.8206 49.9617 28.3836 49.4878 27.897 49.1014C26.9041 48.3129 25.5205 48.7992 24.8681 49.8865V49.8865C24.6272 50.2879 24.5 50.7473 24.5 51.2155V52.0398C24.5 53.2237 23.7792 54.2883 22.68 54.728L22.6238 54.7505C22.2144 54.9142 21.8522 55.1774 21.5699 55.5162V55.5162C20.4982 56.8021 20.8689 58.7467 22.3384 59.5482L22.9063 59.858C24.1476 60.535 25.6773 60.2975 26.4703 59.1268C26.9356 58.4401 27.4678 57.5644 28 56.5C29.5 53.5 29.5 52 29 50.5ZM38 48C37.4729 47.1534 36.6733 46.2154 35.9272 45.4158C34.8702 44.2831 33.12 44.27 31.954 45.2902V45.2902C30.8278 46.2757 30.583 47.9327 31.3761 49.2018L32.1973 50.5157C32.3951 50.8322 32.5 51.1979 32.5 51.5711V51.5711C32.5 52.8276 33.6496 53.7701 34.8818 53.5236L36.3723 53.2255C38.2929 52.8414 39.4574 50.8379 38.5915 49.0811C38.4005 48.6936 38.2009 48.3227 38 48ZM34 7.5C35.379 6.97599 36.6627 5.64598 37.6425 4.37098C38.5427 3.19958 40.4655 3.18965 41.1985 4.47233V4.47233C41.3944 4.81524 41.4765 5.21149 41.4329 5.60402L41.2694 7.07528C41.0959 8.63711 40.3547 10.0808 39.1866 11.132L38.2576 11.9682C36.8622 13.224 34.8996 13.6332 33.1186 13.0395L31.3274 12.4425C30.5163 12.1721 29.9325 11.46 29.8264 10.6116V10.6116C29.6558 9.24653 30.7609 8.06035 32.1279 7.9055C32.7853 7.83102 33.4571 7.7063 34 7.5ZM58 10.5C56.5392 11.5956 55.6119 10.2905 55.218 9.50715C55.0528 9.1785 54.9795 8.81567 54.9389 8.45007L54.5776 5.1981C54.5317 4.78562 54.7668 4.39327 55.1522 4.23914V4.23914C55.8818 3.94728 57.0755 4.72555 57.576 5.33135C57.8824 5.70208 58.3351 6.10104 59 6.5V6.5C59.6288 6.87727 59.4751 9.58675 58.8385 9.95076C58.5519 10.1147 58.2706 10.2971 58 10.5ZM54.5 19C55.0829 18.3913 55.6202 17.5493 56.0742 16.707C57.0157 14.9601 56.1035 12.8794 54.2901 12.0734V12.0734C53.4577 11.7034 52.5203 11.6439 51.6477 11.9057L51.0764 12.0771C49.2505 12.6249 48 14.3055 48 16.2119V17.0246C48 17.6491 47.7519 18.2481 47.3103 18.6897L46.8365 19.1635C45.933 20.067 46.1802 21.5901 47.323 22.1615V22.1615C47.7573 22.3786 48.2583 22.4194 48.7146 22.2535C50.0664 21.7616 52.9968 20.5696 54.5 19ZM58.5 58C57.9593 58.697 57.1081 59.4312 56.3805 59.9989C55.5394 60.6551 54.4098 60.7541 53.425 60.3438V60.3438C51.3157 59.4649 50.7739 56.7261 52.3897 55.1103L55.4506 52.0494C56.8941 50.6059 59.3434 51.1086 60.1016 53.0041V53.0041C60.3584 53.646 60.3756 54.36 60.1095 54.9981C59.7394 55.8857 59.1454 57.1682 58.5 58ZM56 32.5C54.5015 32.1945 52.4577 32.0756 51.0646 32.0294C50.0473 31.9956 49.0568 32.3223 48.2337 32.921L46.3002 34.3271C45.0607 35.2286 44.8535 36.9958 45.851 38.1595V38.1595C46.5458 38.9701 47.6622 39.2793 48.675 38.9417L50.8155 38.2282C52.2196 37.7601 53.7488 37.8404 55.0962 38.4528L56.062 38.8918C57.549 39.5677 59.2931 39.3202 60.5333 38.2572L61.2233 37.6657C61.7163 37.2432 62 36.6263 62 35.977V35.977C62 35.082 61.4648 34.2741 60.6287 33.9548C59.3651 33.4722 57.4689 32.7995 56 32.5ZM48.7722 43.911L48.8683 43.5269C49.2503 41.9989 50.5193 40.8544 52.0785 40.6316V40.6316C54.4121 40.2983 56.5 42.1091 56.5 44.4664V45.7407C56.5 47.1765 55.8802 48.5423 54.7997 49.4877L50.8739 52.9228C49.5195 54.1079 47.4931 54.0937 46.1553 52.8898V52.8898C44.691 51.5719 44.5778 49.3144 45.9031 47.8566L47.7449 45.8306C48.2406 45.2853 48.5935 44.6259 48.7722 43.911ZM53.224 7.56816V7.56816C53.3817 8.6718 52.6929 9.72013 51.6173 10.0135L49.9608 10.4652C48.7236 10.8026 47.4 10.55 46.3741 9.78055L45.2531 8.93985C44.4984 8.37383 44.1712 7.40092 44.4303 6.49385V6.49385C44.7532 5.36395 45.8831 4.66559 47.0381 4.88215L51.4431 5.70807C52.3739 5.8826 53.0901 6.63065 53.224 7.56816ZM33.0336 55.6849L35.1287 55.8753C36.0251 55.9568 36.9265 55.7867 37.7316 55.3842L40.4803 54.0099C41.1173 53.6913 41.8715 53.7123 42.4899 54.0656V54.0656C43.736 54.7777 43.9357 56.4933 42.8865 57.4726L39.8905 60.2688C38.4315 61.6306 36.317 62.0268 34.4639 61.2856L31.9323 60.2729C30.8253 59.8301 30.2156 58.6377 30.5047 57.481V57.481C30.7898 56.3408 31.8632 55.5785 33.0336 55.6849ZM21.9878 30.0285L19.8626 30.1465C18.6422 30.2143 17.4608 30.6005 16.4359 31.2666L13.8769 32.93C13.3091 33.2991 12.8834 33.8498 12.6693 34.4922V34.4922C12.2682 35.6954 12.6695 37.0207 13.6706 37.7994L14.8803 38.7402C15.9028 39.5355 17.234 39.8165 18.4906 39.5023V39.5023C19.7579 39.1855 20.8066 38.2992 21.3302 37.1025L23.483 32.1817C23.7821 31.4981 23.5476 30.6984 22.9268 30.2845V30.2845C22.6498 30.0998 22.3203 30.01 21.9878 30.0285ZM8.24552 45.8979L9.30223 47.5082C10.7052 49.646 13.831 49.6701 15.2668 47.5542V47.5542C16.2631 46.086 16.0356 44.1098 14.7318 42.9063L13.3166 41.6C11.8263 40.2243 9.46491 40.4787 8.30183 42.1402V42.1402C7.51574 43.2632 7.49344 44.7519 8.24552 45.8979ZM41.9162 37.1242L44.5434 41.0651C45.5823 42.6235 45.0203 44.7399 43.345 45.5775V45.5775C41.7837 46.3582 39.8856 45.703 39.1383 44.1253L37.1108 39.845C36.486 38.5261 36.9925 36.9486 38.2683 36.2399V36.2399C39.529 35.5395 41.1162 35.9243 41.9162 37.1242ZM23.2931 38.7758L22.6933 39.5756C21.4673 41.2103 21.7477 43.5209 23.3292 44.8148V44.8148C24.8454 46.0553 27.0549 45.9451 28.4401 44.5599L29.9051 43.0949C30.2925 42.7075 30.7888 42.4475 31.3277 42.3495L31.6899 42.2836C33.5884 41.9385 34.3859 39.6553 33.1153 38.2032V38.2032C32.7186 37.7499 32.1709 37.4561 31.5739 37.3765L27.8198 36.876C26.0783 36.6438 24.3473 37.3703 23.2931 38.7758ZM5.83311 18.0671V18.0671C5.10299 19.6734 5.84301 21.5655 7.46915 22.2502L8.86286 22.837C11.1361 23.7942 13.5893 21.9199 13.2633 19.475V19.475C13.1022 18.2665 12.2664 17.2555 11.1098 16.8699L9.6752 16.3917C8.15447 15.8848 6.49644 16.6078 5.83311 18.0671ZM21 9.14171V6.22718C21 4.93217 21.9141 3.81719 23.1839 3.56321V3.56321C24.7133 3.25735 26.1856 4.29902 26.4061 5.84297L26.7515 8.26075C26.9112 9.37821 26.6398 10.5146 25.9925 11.4393L24.7572 13.2041C24.0583 14.2025 22.69 14.46 21.676 13.784V13.784C20.9574 13.3049 20.5777 12.4558 20.6999 11.6009L20.9493 9.85469C20.9831 9.61853 21 9.38027 21 9.14171ZM10.2827 11.3828L9.61788 11.7891C7.76704 12.9201 5.34513 12.0354 4.65921 9.97762V9.97762C4.2552 8.7656 4.57065 7.42935 5.47403 6.52597L6.02492 5.97508C7.17773 4.82227 8.97817 4.62883 10.3496 5.51044V5.51044C12.5005 6.89317 12.4645 10.0495 10.2827 11.3828ZM59.5763 23.2684L59.2377 22.8169C58.2077 21.4437 56.3955 20.9142 54.7883 21.5169V21.5169C53.955 21.8294 53.2551 22.4198 52.8067 23.1885L52.5628 23.6067C51.2014 25.9404 52.1916 28.9392 54.6749 30.0035L54.935 30.115C56.2171 30.6645 57.6931 30.5049 58.8282 29.6942V29.6942C59.8773 28.9448 60.5 27.7348 60.5 26.4455V26.0395C60.5 25.0402 60.1759 24.0678 59.5763 23.2684ZM22.9486 24.3075V24.3075C23.768 25.7823 22.504 27.5462 20.844 27.2444L20.4586 27.1743C19.8485 27.0634 19.3143 26.6983 18.9894 26.1702L16.8962 22.7689C16.0673 21.4219 16.2192 19.6909 17.2699 18.5089L17.3789 18.3863C18.5722 17.0438 20.6024 16.8574 22.0202 17.9602V17.9602C23.1979 18.8761 23.6432 20.4515 23.1193 21.8484L22.8243 22.6351C22.6186 23.1838 22.664 23.7952 22.9486 24.3075Z" stroke="#E8F5E9" stroke-opacity="0.25"/>
</g>
<defs>
<clipPath id="clip0_18_122">
<rect width="64" height="64" fill="white"/>
</clipPath>
</defs>
</svg>
