<svg width="26" height="37" viewBox="0 0 26 37" fill="none" xmlns="http://www.w3.org/2000/svg">
<path d="M24.5 13C24.5 14.4389 23.8191 16.5775 22.6118 19.1396C21.431 21.6456 19.843 24.3617 18.2348 26.8866C16.6299 29.4063 15.0225 31.7083 13.8148 33.382C13.5165 33.7955 13.2428 34.1702 13 34.4999C12.7572 34.1702 12.4835 33.7955 12.1852 33.382C10.9775 31.7083 9.37006 29.4063 7.76516 26.8866C6.15697 24.3617 4.56897 21.6456 3.38816 19.1396C2.18093 16.5775 1.5 14.4389 1.5 13C1.5 6.64873 6.64873 1.5 13 1.5C19.3513 1.5 24.5 6.64873 24.5 13Z" fill="#1565C0" stroke="white" stroke-width="3"/>
<circle cx="13" cy="13" r="4" fill="white"/>
</svg>
