<svg width="26" height="37" viewBox="0 0 26 37" fill="none" xmlns="http://www.w3.org/2000/svg">
<path d="M24.5 13C24.5 13.8974 24.2311 15.1082 23.692 16.5832C23.1606 18.0373 22.403 19.6517 21.5111 21.3257C19.7276 24.6734 17.462 28.1578 15.5578 30.9137C14.2936 32.7436 11.7064 32.7436 10.4422 30.9137C8.53805 28.1578 6.27243 24.6734 4.48887 21.3257C3.59699 19.6517 2.83944 18.0373 2.30799 16.5832C1.76892 15.1082 1.5 13.8974 1.5 13C1.5 6.64873 6.64873 1.5 13 1.5C19.3513 1.5 24.5 6.64873 24.5 13Z" fill="#1565C0" stroke="white" stroke-width="3"/>
<circle cx="13" cy="13" r="4" fill="white"/>
</svg>
