<svg width="134" height="48" viewBox="0 0 134 48" fill="none" xmlns="http://www.w3.org/2000/svg">
    <g clip-path="url(#clip0_224_15)">
        <rect width="48" height="48" rx="24" fill="white"/>
        <path d="M11.4716 38.58C10.4144 38.58 9.60243 38.13 9.03557 37.23C8.469 36.33 8.42386 35.4039 8.90014 34.4516L14.0713 23.9657L20.4716 28.2086L24 26.4802L27.5284 28.2373L33.8713 24.0514L39.0857 34.437C39.562 35.3896 39.5216 36.3182 38.9644 37.2227C38.4073 38.1276 37.5906 38.58 36.5143 38.58H11.4716Z" fill="#597C4B"/>
        <path d="M19.143 5.71414V18L21.9999 16.2857V10.5716H29.2573C29.5144 10.5716 29.7144 10.4596 29.8573 10.2356C30.0001 10.0119 30.0096 9.77614 29.8856 9.52842L28.9714 7.75713C28.9143 7.65228 28.8857 7.54271 28.8857 7.42842C28.8857 7.31414 28.9143 7.20471 28.9714 7.10013L29.8856 5.32842C30.0096 5.08099 30.0001 4.84528 29.8573 4.62128C29.7144 4.39756 29.5144 4.28571 29.2573 4.28571H20.5714C20.162 4.28571 19.8216 4.42142 19.5501 4.69285C19.2787 4.96428 19.143 5.30471 19.143 5.71414Z" fill="#D03939"/>
        <path d="M17.0572 17.9001L15.3287 21.3857L20.6713 24.9141L24 23.2427L27.3 24.9428L32.5573 21.4286L30.8002 17.8573C30.543 17.381 30.1882 17 29.7356 16.7143C29.2833 16.4286 28.7857 16.2857 28.2429 16.2857H19.5999C19.057 16.2857 18.5594 16.4286 18.1072 16.7143C17.6549 17 17.3049 17.3953 17.0572 17.9001Z" fill="#95A8A9"/>
        <path d="M55.6758 28.4375L59.6953 14.9375H63.6094L57.668 32H55.0898L55.6758 28.4375ZM51.9727 14.9375L55.9805 28.4375L56.5898 32H53.9883L48.082 14.9375H51.9727ZM70.3125 32.2344C69.3281 32.2344 68.4453 32.0781 67.6641 31.7656C66.8828 31.4453 66.2188 31.0039 65.6719 30.4414C65.1328 29.8789 64.7188 29.2266 64.4297 28.4844C64.1406 27.7344 63.9961 26.9375 63.9961 26.0938V25.625C63.9961 24.6641 64.1328 23.7852 64.4062 22.9883C64.6797 22.1914 65.0703 21.5 65.5781 20.9141C66.0938 20.3281 66.7188 19.8789 67.4531 19.5664C68.1875 19.2461 69.0156 19.0859 69.9375 19.0859C70.8359 19.0859 71.6328 19.2344 72.3281 19.5312C73.0234 19.8281 73.6055 20.25 74.0742 20.7969C74.5508 21.3438 74.9102 22 75.1523 22.7656C75.3945 23.5234 75.5156 24.3672 75.5156 25.2969V26.7031H65.4375V24.4531H72.1992V24.1953C72.1992 23.7266 72.1133 23.3086 71.9414 22.9414C71.7773 22.5664 71.5273 22.2695 71.1914 22.0508C70.8555 21.832 70.4258 21.7227 69.9023 21.7227C69.457 21.7227 69.0742 21.8203 68.7539 22.0156C68.4336 22.2109 68.1719 22.4844 67.9688 22.8359C67.7734 23.1875 67.625 23.6016 67.5234 24.0781C67.4297 24.5469 67.3828 25.0625 67.3828 25.625V26.0938C67.3828 26.6016 67.4531 27.0703 67.5938 27.5C67.7422 27.9297 67.9492 28.3008 68.2148 28.6133C68.4883 28.9258 68.8164 29.168 69.1992 29.3398C69.5898 29.5117 70.0312 29.5977 70.5234 29.5977C71.1328 29.5977 71.6992 29.4805 72.2227 29.2461C72.7539 29.0039 73.2109 28.6406 73.5938 28.1562L75.2344 29.9375C74.9688 30.3203 74.6055 30.6875 74.1445 31.0391C73.6914 31.3906 73.1445 31.6797 72.5039 31.9062C71.8633 32.125 71.1328 32.2344 70.3125 32.2344ZM80.7422 22.0273V32H77.3672V19.3203H80.5312L80.7422 22.0273ZM80.25 25.2148H79.3359C79.3359 24.2773 79.457 23.4336 79.6992 22.6836C79.9414 21.9258 80.2812 21.2812 80.7188 20.75C81.1562 20.2109 81.6758 19.8008 82.2773 19.5195C82.8867 19.2305 83.5664 19.0859 84.3164 19.0859C84.9102 19.0859 85.4531 19.1719 85.9453 19.3438C86.4375 19.5156 86.8594 19.7891 87.2109 20.1641C87.5703 20.5391 87.8438 21.0352 88.0312 21.6523C88.2266 22.2695 88.3242 23.0234 88.3242 23.9141V32H84.9258V23.9023C84.9258 23.3398 84.8477 22.9023 84.6914 22.5898C84.5352 22.2773 84.3047 22.0586 84 21.9336C83.7031 21.8008 83.3359 21.7344 82.8984 21.7344C82.4453 21.7344 82.0508 21.8242 81.7148 22.0039C81.3867 22.1836 81.1133 22.4336 80.8945 22.7539C80.6836 23.0664 80.5234 23.4336 80.4141 23.8555C80.3047 24.2773 80.25 24.7305 80.25 25.2148ZM97.1016 19.3203V21.7109H89.7188V19.3203H97.1016ZM91.5469 16.1914H94.9219V28.1797C94.9219 28.5469 94.9688 28.8281 95.0625 29.0234C95.1641 29.2188 95.3125 29.3555 95.5078 29.4336C95.7031 29.5039 95.9492 29.5391 96.2461 29.5391C96.457 29.5391 96.6445 29.5312 96.8086 29.5156C96.9805 29.4922 97.125 29.4688 97.2422 29.4453L97.2539 31.9297C96.9648 32.0234 96.6523 32.0977 96.3164 32.1523C95.9805 32.207 95.6094 32.2344 95.2031 32.2344C94.4609 32.2344 93.8125 32.1133 93.2578 31.8711C92.7109 31.6211 92.2891 31.2227 91.9922 30.6758C91.6953 30.1289 91.5469 29.4102 91.5469 28.5195V16.1914ZM106.523 28.9648V19.3203H109.898V32H106.723L106.523 28.9648ZM106.898 26.3633L107.895 26.3398C107.895 27.1836 107.797 27.9688 107.602 28.6953C107.406 29.4141 107.113 30.0391 106.723 30.5703C106.332 31.0938 105.84 31.5039 105.246 31.8008C104.652 32.0898 103.953 32.2344 103.148 32.2344C102.531 32.2344 101.961 32.1484 101.438 31.9766C100.922 31.7969 100.477 31.5195 100.102 31.1445C99.7344 30.7617 99.4453 30.2734 99.2344 29.6797C99.0312 29.0781 98.9297 28.3555 98.9297 27.5117V19.3203H102.305V27.5352C102.305 27.9102 102.348 28.2266 102.434 28.4844C102.527 28.7422 102.656 28.9531 102.82 29.1172C102.984 29.2812 103.176 29.3984 103.395 29.4688C103.621 29.5391 103.871 29.5742 104.145 29.5742C104.84 29.5742 105.387 29.4336 105.785 29.1523C106.191 28.8711 106.477 28.4883 106.641 28.0039C106.812 27.5117 106.898 26.9648 106.898 26.3633ZM115.852 22.0859V32H112.477V19.3203H115.652L115.852 22.0859ZM119.672 19.2383L119.613 22.3672C119.449 22.3438 119.25 22.3242 119.016 22.3086C118.789 22.2852 118.582 22.2734 118.395 22.2734C117.918 22.2734 117.504 22.3359 117.152 22.4609C116.809 22.5781 116.52 22.7539 116.285 22.9883C116.059 23.2227 115.887 23.5078 115.77 23.8438C115.66 24.1797 115.598 24.5625 115.582 24.9922L114.902 24.7812C114.902 23.9609 114.984 23.207 115.148 22.5195C115.312 21.8242 115.551 21.2188 115.863 20.7031C116.184 20.1875 116.574 19.7891 117.035 19.5078C117.496 19.2266 118.023 19.0859 118.617 19.0859C118.805 19.0859 118.996 19.1016 119.191 19.1328C119.387 19.1562 119.547 19.1914 119.672 19.2383ZM120.375 25.7891V25.543C120.375 24.6133 120.508 23.7578 120.773 22.9766C121.039 22.1875 121.426 21.5039 121.934 20.9258C122.441 20.3477 123.066 19.8984 123.809 19.5781C124.551 19.25 125.402 19.0859 126.363 19.0859C127.324 19.0859 128.18 19.25 128.93 19.5781C129.68 19.8984 130.309 20.3477 130.816 20.9258C131.332 21.5039 131.723 22.1875 131.988 22.9766C132.254 23.7578 132.387 24.6133 132.387 25.543V25.7891C132.387 26.7109 132.254 27.5664 131.988 28.3555C131.723 29.1367 131.332 29.8203 130.816 30.4062C130.309 30.9844 129.684 31.4336 128.941 31.7539C128.199 32.0742 127.348 32.2344 126.387 32.2344C125.426 32.2344 124.57 32.0742 123.82 31.7539C123.078 31.4336 122.449 30.9844 121.934 30.4062C121.426 29.8203 121.039 29.1367 120.773 28.3555C120.508 27.5664 120.375 26.7109 120.375 25.7891ZM123.75 25.543V25.7891C123.75 26.3203 123.797 26.8164 123.891 27.2773C123.984 27.7383 124.133 28.1445 124.336 28.4961C124.547 28.8398 124.82 29.1094 125.156 29.3047C125.492 29.5 125.902 29.5977 126.387 29.5977C126.855 29.5977 127.258 29.5 127.594 29.3047C127.93 29.1094 128.199 28.8398 128.402 28.4961C128.605 28.1445 128.754 27.7383 128.848 27.2773C128.949 26.8164 129 26.3203 129 25.7891V25.543C129 25.0273 128.949 24.543 128.848 24.0898C128.754 23.6289 128.602 23.2227 128.391 22.8711C128.188 22.5117 127.918 22.2305 127.582 22.0273C127.246 21.8242 126.84 21.7227 126.363 21.7227C125.887 21.7227 125.48 21.8242 125.145 22.0273C124.816 22.2305 124.547 22.5117 124.336 22.8711C124.133 23.2227 123.984 23.6289 123.891 24.0898C123.797 24.543 123.75 25.0273 123.75 25.543Z" fill="#484B3D"/>
    </g>
    <defs>
        <clipPath id="clip0_224_15">
            <rect width="134" height="48" fill="white"/>
        </clipPath>
    </defs>
</svg>