<svg width="493" height="580" viewBox="0 0 493 580" fill="none" xmlns="http://www.w3.org/2000/svg">
<path d="M284 0C503.5 0 481.5 485 481.5 485H13.9999C13.9999 485 2.50006 0 284 0Z" fill="#A8E5FF"/>
<path d="M156 466C95.789 476.571 0.5 484 0.5 484C0.5 484 138.062 577.103 238 579.5C344.308 582.05 493 484 493 484C493 484 385.561 429.539 311.5 429C249.08 428.546 217.482 455.205 156 466Z" fill="#A2C794"/>
<path d="M227.5 296.706L219 347.206C219 347.206 218.602 379.529 217.5 400.206C216.427 420.35 213.5 451.706 213.5 451.706L187.5 457.206C187.5 457.206 181.491 415.87 179.5 389.206C178.321 373.414 177.5 348.706 177.5 348.706L174.5 293.206L278.5 283.206L307.986 347.018C310.524 352.512 310.439 358.859 307.753 364.282L270.9 438.706L247.4 430.206L267.5 357.706L255.5 341.206L227.5 296.706Z" fill="#FEE3D4"/>
<path d="M223.871 443.877C224.478 442.89 225.268 442.028 226.198 441.338L245.323 427.142C245.98 426.654 246.867 426.616 247.564 427.044L255.22 431.757C259.983 434.689 265.623 435.858 271.158 435.061C272.932 434.805 274.648 435.806 275.299 437.475L284.437 460.896L296.139 478.75C298.052 481.668 298.106 485.429 296.277 488.401L296.129 488.641C293.234 493.345 287.074 494.811 282.371 491.916L227.226 457.973C222.407 455.007 220.905 448.696 223.871 443.877Z" fill="#446A35"/>
<path d="M176.5 480.96C176.5 479.801 176.721 478.653 177.151 477.577L185.997 455.463C186.301 454.704 187.036 454.206 187.854 454.206H196.845C202.437 454.206 207.853 452.245 212.149 448.665C213.526 447.518 215.512 447.47 216.942 448.551L237 463.706L256.324 472.776C259.483 474.259 261.5 477.434 261.5 480.924V481.206C261.5 486.729 257.023 491.206 251.5 491.206H186.746C181.087 491.206 176.5 486.619 176.5 480.96Z" fill="#597C4B"/>
<path d="M227.5 348.706H173.5C172.395 348.706 171.5 347.81 171.5 346.706V245.206C171.5 245.206 191.5 253.206 220.5 251.706C249.5 250.206 270.5 245.206 270.5 245.206V256.706L305.03 323.82C305.556 324.843 305.113 326.098 304.06 326.564L255.708 347.95C254.746 348.376 253.62 347.984 253.129 347.054L229.5 302.206V346.706C229.5 347.81 228.605 348.706 227.5 348.706Z" fill="#F8C558"/>
<path d="M285 171.706L278.5 160.206L257 165.706L266.5 199.706L268.578 202.953C271.93 208.19 278.727 209.999 284.239 207.122L344 175.925L355.5 180.206L357.5 171.706L331.5 162.206L344.983 112.319C345.828 109.191 343.982 105.939 340.882 104.996C337.679 104.021 334.24 105.838 333.312 109.054L321 151.706L285 171.706Z" fill="#FEE3D4"/>
<path d="M372.684 118.426L376.48 119.688C378.576 120.384 379.711 122.648 379.015 124.745L362.619 174.092C361.922 176.189 359.658 177.324 357.562 176.627L353.766 175.366L372.684 118.426Z" fill="#181818"/>
<rect x="340.418" y="107.706" width="38" height="60" rx="4" transform="rotate(18.3794 340.418 107.706)" fill="#2D2D2D"/>
<rect x="342.32" y="111.499" width="32" height="54" rx="1" transform="rotate(18.3794 342.32 111.499)" fill="white"/>
<path d="M351.074 141.038C353.519 133.123 361.917 128.687 369.832 131.132L373.902 132.388C378.124 133.692 380.489 138.171 379.186 142.393L368.792 176.051C367.488 180.272 363.009 182.638 358.788 181.334L354.718 180.078C346.802 177.633 342.367 169.235 344.811 161.32L351.074 141.038Z" fill="#EDCEBD"/>
<path d="M376.5 71.7059C376.5 80.5425 360 104.706 360 104.706C360 104.706 344.5 80.5425 344.5 71.7059C344.5 62.8693 351.663 55.7059 360.5 55.7059C369.337 55.7059 376.5 62.8693 376.5 71.7059Z" fill="#D03939"/>
<circle cx="360.5" cy="71.7059" r="7" fill="white"/>
<path d="M128.931 183.973L146.5 158.206L163.5 169.706L143 207.206C140.95 207.206 138.9 206.691 137.553 206.265C136.505 205.933 135.54 205.399 134.625 204.789L130.786 202.23C130.269 201.885 129.84 201.425 129.532 200.886L128.343 198.806C125.686 194.156 125.914 188.398 128.931 183.973Z" fill="#FEE3D4"/>
<path d="M211 122.706V115.206L211.5 105.706L229.5 109.206V115.706V122.706H211Z" fill="#EDCEBD"/>
<path d="M283.5 160.706L263 168.206C263 168.206 267.715 186.571 269.5 201.206C271.141 214.655 271.804 237.687 271.961 244.041C271.986 245.012 271.31 245.84 270.354 246.018C263.083 247.377 233.37 252.706 214.5 252.706C199.444 252.706 177.727 247.525 171.954 246.077C171.084 245.859 170.491 245.086 170.478 244.189L169.5 177.706L142.5 159.206C142.5 159.206 156 135.206 169.5 126.206C177.107 121.135 182.541 119.027 191.5 117.206C198.985 115.685 211 115.206 211 115.206C211 115.206 211.293 118.629 213.5 120.206C216.062 122.036 217.851 122.206 221 122.206C223.5 122.206 226.5 121.706 228 119.706C229.195 118.113 229.5 115.706 229.5 115.706C229.5 115.706 243.271 114.783 251 118.206C258.223 121.405 261.116 125.425 266.5 131.206C275.515 140.885 283.5 160.706 283.5 160.706Z" fill="#597C4B"/>
<path d="M202.5 200.206L143 207.206L156.5 171.706L202.5 162.706V200.206Z" fill="#FEE3D4"/>
<path d="M201.949 154.42C202.593 150.049 206.659 147.028 211.03 147.673L225.291 149.776C233.486 150.985 239.15 158.608 237.942 166.804L234.591 189.525C233.383 197.721 225.759 203.385 217.563 202.177L203.303 200.074C198.932 199.429 195.911 195.363 196.555 190.992L201.949 154.42Z" fill="#EDCEBD"/>
<path d="M258.5 76.7059C257.727 80.8587 253.5 83.7059 249.5 82.7059C245.5 81.7059 247 71.7059 247 71.7059L215.5 64.7059L206.5 99.7059C206.5 99.7059 204.963 99.8644 204 99.7059C200.99 99.2109 199.538 97.3398 198 94.7059C196.59 92.2917 196.5 90.7059 196.5 87.7059C196.5 84.7059 199 64.7059 200 59.2059C201 53.7059 201.578 50.1766 206 47.7059C208.108 46.5279 209.612 45.846 212 46.2059C214.517 46.5853 217.5 49.7059 217.5 49.7059C217.5 49.7059 221.622 45.696 225 44.7059C228.185 43.7722 230.319 43.7572 233.5 44.7059C237.884 46.0135 242.5 52.2059 242.5 52.2059C242.5 52.2059 246.603 48.4098 250 48.7059C252.61 48.9334 254.519 49.9915 256.5 51.7059C259.21 54.0517 260.34 56.1249 260.5 59.7059C260.691 63.9885 255.5 69.2059 255.5 69.2059C257.5 70.2059 259.077 73.6046 258.5 76.7059Z" fill="#5E3711"/>
<path d="M208.346 68.8687C209.68 62.942 215.567 59.2195 221.494 60.5542L242.654 65.3197C248.581 66.6545 252.303 72.541 250.968 78.4677L246.418 98.6715C244.598 106.753 236.571 111.829 228.489 110.009L215.133 107.001C207.052 105.181 201.975 97.1543 203.796 89.0724L208.346 68.8687Z" fill="#FEE3D4"/>
</svg>
