<svg width="398" height="502" viewBox="0 0 398 502" fill="none" xmlns="http://www.w3.org/2000/svg">
<path d="M0 160C0 71.6344 71.6344 0 160 0H238C326.366 0 398 71.6344 398 160V422H0V160Z" fill="#CCEEFF"/>
<path d="M126.5 411C78 417 0 422 0 422C0 422 22.0346 502 208.64 502C372.178 502 398 422 398 422C398 422 340.79 389.949 281 389.5C230.608 389.122 176.561 404.807 126.5 411Z" fill="#A2C794"/>
<path d="M173.5 278.706L165 329.206C165 329.206 164.602 361.529 163.5 382.206C162.427 402.35 159.5 433.706 159.5 433.706L133.5 439.206C133.5 439.206 127.491 397.87 125.5 371.206C124.321 355.414 123.5 330.706 123.5 330.706L120.5 275.206L224.5 265.206L253.986 329.018C256.524 334.512 256.439 340.859 253.753 346.282L216.9 420.706L193.4 412.206L213.5 339.706L201.5 323.206L173.5 278.706Z" fill="#FEE3D4"/>
<path d="M169.871 425.877C170.478 424.89 171.268 424.028 172.198 423.338L191.323 409.142C191.98 408.654 192.867 408.616 193.564 409.044L201.22 413.757C205.983 416.689 211.623 417.858 217.158 417.061V417.061C218.932 416.805 220.648 417.806 221.299 419.475L230.437 442.896L242.139 460.75C244.052 463.668 244.106 467.429 242.277 470.401L242.129 470.641C239.234 475.345 233.074 476.811 228.371 473.916L173.226 439.973C168.407 437.007 166.905 430.696 169.871 425.877V425.877Z" fill="#446A35"/>
<path d="M122.5 462.96C122.5 461.801 122.721 460.653 123.151 459.577L131.997 437.463C132.301 436.704 133.036 436.206 133.854 436.206H142.845C148.437 436.206 153.853 434.245 158.149 430.665V430.665C159.526 429.518 161.512 429.47 162.942 430.551L183 445.706L202.324 454.776C205.483 456.259 207.5 459.434 207.5 462.924V463.206C207.5 468.729 203.023 473.206 197.5 473.206H132.746C127.087 473.206 122.5 468.619 122.5 462.96V462.96Z" fill="#597C4B"/>
<path d="M173.5 330.706H119.5C118.395 330.706 117.5 329.81 117.5 328.706V227.206C117.5 227.206 137.5 235.206 166.5 233.706C195.5 232.206 216.5 227.206 216.5 227.206V238.706L251.03 305.82C251.556 306.843 251.113 308.098 250.06 308.564L201.708 329.95C200.746 330.376 199.62 329.984 199.129 329.054L175.5 284.206V328.706C175.5 329.81 174.605 330.706 173.5 330.706Z" fill="#F8C558"/>
<path d="M231 153.706L224.5 142.206L203 147.706L212.5 181.706L214.578 184.953C217.93 190.19 224.727 191.999 230.239 189.122L290 157.925L301.5 162.206L303.5 153.706L277.5 144.206L290.983 94.3186C291.828 91.1906 289.982 87.9395 286.882 86.9961C283.679 86.0214 280.24 87.838 279.312 91.0543L267 133.706L231 153.706Z" fill="#FEE3D4"/>
<path d="M318.684 100.426L322.48 101.688C324.576 102.384 325.711 104.648 325.015 106.745L308.619 156.092C307.922 158.189 305.658 159.324 303.562 158.627L299.766 157.366L318.684 100.426Z" fill="#181818"/>
<rect x="286.418" y="89.7059" width="38" height="60" rx="4" transform="rotate(18.3794 286.418 89.7059)" fill="#2D2D2D"/>
<rect x="288.32" y="93.4988" width="32" height="54" rx="1" transform="rotate(18.3794 288.32 93.4988)" fill="white"/>
<path d="M297.074 123.038C299.519 115.123 307.917 110.687 315.832 113.132L319.902 114.388C324.124 115.692 326.489 120.171 325.186 124.393L314.792 158.051C313.488 162.272 309.009 164.638 304.788 163.334L300.718 162.078C292.802 159.633 288.367 151.235 290.811 143.32L297.074 123.038Z" fill="#EDCEBD"/>
<path d="M322.5 53.7059C322.5 62.5425 306 86.7059 306 86.7059C306 86.7059 290.5 62.5425 290.5 53.7059C290.5 44.8693 297.663 37.7059 306.5 37.7059C315.337 37.7059 322.5 44.8693 322.5 53.7059Z" fill="#D03939"/>
<circle cx="306.5" cy="53.7059" r="7" fill="white"/>
<path d="M74.9312 165.973L92.5 140.206L109.5 151.706L89 189.206C86.9501 189.206 84.9002 188.691 83.5534 188.265C82.5053 187.933 81.5397 187.399 80.6249 186.789L76.7857 184.23C76.269 183.885 75.8396 183.425 75.5315 182.886L74.343 180.806C71.686 176.156 71.9143 170.398 74.9312 165.973Z" fill="#FEE3D4"/>
<path d="M157 104.706V97.2059L157.5 87.7059L175.5 91.2059V97.7059V104.706H157Z" fill="#EDCEBD"/>
<path d="M229.5 142.706L209 150.206C209 150.206 213.715 168.571 215.5 183.206C217.141 196.655 217.804 219.687 217.961 226.041C217.986 227.012 217.31 227.84 216.354 228.018C209.083 229.377 179.37 234.706 160.5 234.706C145.444 234.706 123.727 229.525 117.954 228.077C117.084 227.859 116.491 227.086 116.478 226.189L115.5 159.706L88.5 141.206C88.5 141.206 102 117.206 115.5 108.206C123.107 103.135 128.541 101.027 137.5 99.2059C144.985 97.6847 157 97.2059 157 97.2059C157 97.2059 157.293 100.629 159.5 102.206C162.062 104.036 163.851 104.206 167 104.206C169.5 104.206 172.5 103.706 174 101.706C175.195 100.113 175.5 97.7059 175.5 97.7059C175.5 97.7059 189.271 96.7827 197 100.206C204.223 103.405 207.116 107.425 212.5 113.206C221.515 122.885 229.5 142.706 229.5 142.706Z" fill="#597C4B"/>
<path d="M148.5 182.206L89 189.206L102.5 153.706L148.5 144.706V182.206Z" fill="#FEE3D4"/>
<path d="M147.949 136.42C148.593 132.049 152.659 129.028 157.03 129.673L171.291 131.776C179.486 132.985 185.15 140.608 183.942 148.804L180.591 171.525C179.383 179.721 171.759 185.385 163.563 184.177L149.303 182.074C144.932 181.429 141.911 177.363 142.555 172.992L147.949 136.42Z" fill="#EDCEBD"/>
<path d="M204.5 58.7059C203.727 62.8587 199.5 65.7059 195.5 64.7059C191.5 63.7059 193 53.7059 193 53.7059L161.5 46.7059L152.5 81.7059C152.5 81.7059 150.963 81.8644 150 81.7059C146.99 81.2109 145.538 79.3398 144 76.7059C142.59 74.2917 142.5 72.7059 142.5 69.7059C142.5 66.7059 145 46.7059 146 41.2059C147 35.7059 147.578 32.1766 152 29.7059C154.108 28.5279 155.612 27.846 158 28.2059C160.517 28.5853 163.5 31.7059 163.5 31.7059C163.5 31.7059 167.622 27.696 171 26.7059C174.185 25.7722 176.319 25.7572 179.5 26.7059C183.884 28.0135 188.5 34.2059 188.5 34.2059C188.5 34.2059 192.603 30.4098 196 30.7059C198.61 30.9334 200.519 31.9915 202.5 33.7059C205.21 36.0517 206.34 38.1249 206.5 41.7059C206.691 45.9885 201.5 51.2059 201.5 51.2059C203.5 52.2059 205.077 55.6046 204.5 58.7059Z" fill="#5E3711"/>
<path d="M154.346 50.8687C155.68 44.942 161.567 41.2195 167.494 42.5542L188.654 47.3197C194.581 48.6545 198.303 54.541 196.968 60.4677L192.418 80.6715C190.598 88.7533 182.571 93.8295 174.489 92.0094L161.133 89.0015C153.052 87.1814 147.975 79.1543 149.796 71.0724L154.346 50.8687Z" fill="#FEE3D4"/>
</svg>
